<?xml version="1.0" encoding="UTF-8" standalone="no"?>
<svg
   viewBox="0 0 108 108"
   version="1.1"
   id="svg11831"
   xmlns="http://www.w3.org/2000/svg"
   xmlns:svg="http://www.w3.org/2000/svg">
  <defs
     id="defs11828" />
  <g
     id="mask"
     transform="scale(3.7795272)">
    <path
       id="rect15082"
       style="fill:#ffffff;stroke-width:0.881944;stroke-linecap:round;stroke-linejoin:round"
       d="M 14.287501,1.0583333 V 14.287501 L 1.0583333,14.2875 C 1.0583334,7.1437502 2.9104167,5.0270835 3.9687501,3.9687501 5.0270835,2.9104167 7.1437502,1.0583334 14.287501,1.0583333 Z m 0,0 V 14.287501 l 13.229168,-1e-6 c 0,-7.1437498 -1.852084,-9.2604165 -2.910417,-10.3187499 -1.058333,-1.0583334 -3.175,-2.9104167 -10.318751,-2.9104168 z m 0,26.4583357 V 14.287501 l -13.2291677,10e-7 c 1e-7,7.14375 1.8520834,9.260417 2.9104168,10.31875 1.0583334,1.058333 3.1750001,2.910417 10.3187509,2.910417 z m 0,0 V 14.287501 l 13.229168,10e-7 c 0,7.14375 -1.852084,9.260417 -2.910417,10.31875 -1.058333,1.058333 -3.175,2.910417 -10.318751,2.910417 z"
       transform="matrix(1.08,0,0,1.08,-1.1429999,-1.1429999)" />
  </g>
</svg>
