# Blender v2.69 (sub 0) OBJ File: ''
# www.blender.org
mtllib pusheenbox.mtl
o Cube
v 60.478378 -4.400583 -60.478390
v 60.478378 -4.400583 60.478397
v -60.478394 -4.400583 60.478382
v -60.478363 -4.400583 -60.478401
v 60.478416 116.556206 -60.478359
v 60.478348 116.556206 60.478439
v -60.478409 116.556206 60.478382
v -60.478378 116.556206 -60.478390
v 54.734573 -4.400583 -54.734585
v 54.734573 -4.400583 54.734592
v -54.734589 -4.400583 54.734577
v -54.734562 -4.400583 -54.734596
v -54.734573 -4.400583 10.559288
v 54.734573 -4.400583 10.612734
v 54.734573 -15.159424 54.734592
v -54.734589 -15.159424 54.734577
v -54.734573 -15.159424 10.559288
v 54.734573 -15.159424 10.612734
v 10.586712 -4.400583 -54.734589
v 2.906719 -4.400583 10.587430
v -22.073925 -4.400583 -54.734592
v -54.734566 -4.400583 -22.087654
v -25.913927 -4.400583 10.573359
v 6.746716 -4.400583 -22.073582
v -23.993927 -4.400583 -22.080616
v -38.404243 -4.400583 -54.734596
v -54.734566 -4.400583 -38.411125
v -40.324249 -4.400583 10.566323
v 8.666714 -4.400583 -38.404083
v -5.743607 -4.400583 -54.734589
v -54.734570 -4.400583 -5.764183
v -11.503604 -4.400583 10.580395
v 4.826717 -4.400583 -5.743076
v -24.953926 -4.400583 -5.753628
v -23.033926 -4.400583 -38.407604
v -8.623606 -4.400583 -22.077099
v -39.364246 -4.400583 -22.084135
v -39.844246 -4.400583 -5.758905
v -10.063604 -4.400583 -5.748352
v -7.183606 -4.400583 -38.405846
v -38.884247 -4.400583 -38.409367
v -54.734562 27.809416 -54.734596
v -38.404243 27.809416 -54.734596
v -54.734566 27.809416 -38.411125
v -38.884247 27.809416 -38.409367
v -54.734566 23.638760 -22.087654
v -54.734566 23.638760 -38.411125
v -39.364246 23.638760 -22.084135
v -38.884247 23.638760 -38.409367
v -54.734566 14.812521 -22.087654
v -54.734570 14.812521 -5.764183
v -39.364246 14.812521 -22.084135
v -39.844246 14.812521 -5.758905
v -54.734573 10.239118 10.559288
v -40.324249 10.239118 10.566323
v -54.734570 10.239118 -5.764183
v -39.844246 10.239118 -5.758905
v -25.913927 4.666669 10.573359
v -40.324249 4.666669 10.566323
v -24.953926 4.666669 -5.753628
v -39.844246 4.666669 -5.758905
v -23.993927 1.760352 -22.080616
v -24.953926 1.760352 -5.753628
v -39.364246 1.760352 -22.084135
v -39.844246 1.760352 -5.758905
v -23.993927 -3.263676 -22.080616
v -23.033926 -3.263676 -38.407604
v -39.364246 -3.263676 -22.084135
v -38.884247 -3.263676 -38.409367
v -25.334641 27.357018 -54.734592
v -9.004321 27.357018 -54.734589
v -26.294640 27.357018 -38.407604
v -10.444321 27.357018 -38.405846
v 3.463581 27.367207 -22.261816
v 5.383580 27.367207 -38.592316
v -11.906740 27.367207 -22.265333
v -10.466741 27.367207 -38.594078
v 2.906719 28.341356 10.587430
v -11.503604 28.341356 10.580395
v 4.826717 28.341356 -5.743076
v -10.063604 28.341356 -5.748352
v 54.734573 -4.400583 -22.060926
v 28.820646 -4.400583 10.600082
v 32.660645 -4.400583 -54.734589
v 9.626713 -4.400583 -46.569336
v 3.866718 -4.400583 2.422176
v 7.706715 -4.400583 -30.238832
v 5.786716 -4.400583 -13.908329
v 27.163151 -4.400583 -28.460144
v 27.163151 -4.400583 -15.676249
v 18.526506 -4.400583 -28.460144
v 17.024069 -4.400583 -15.681201
v 17.775288 -4.400583 -22.070673
v 18.150896 -4.400583 -25.265408
v 17.399677 -4.400583 -18.875937
v 27.163151 -4.400583 -22.068197
v 22.093611 -4.400583 -15.678724
v 22.844830 -4.400583 -28.460144
v 18.338701 -4.400583 -26.862778
v 17.211874 -4.400583 -17.278568
v 17.963093 -4.400583 -23.668041
v 17.587482 -4.400583 -20.473305
v 27.163151 2.286131 -28.460144
v 27.163151 -1.173111 -15.676249
v 18.526506 7.562794 -28.460144
v 27.163151 2.286131 -22.068197
v 22.093611 -1.173111 -15.678724
v 22.844830 7.562794 -28.460144
v 27.163151 4.107441 -28.460144
v 27.163151 0.676900 -15.676249
v 17.024069 -2.683306 -15.681201
v 27.163151 0.676900 -22.068197
v 22.093611 -2.683306 -15.678724
v 22.844830 4.107441 -28.460144
vt 0.333393 0.666786
vt 0.000000 0.666786
vt 0.317561 0.650954
vt 0.333843 0.667060
vt 0.666786 0.666786
vt 0.333843 1.000412
vt 0.332309 -0.001007
vt 0.665702 -0.001007
vt 0.332309 0.332386
vt 0.998916 -0.000874
vt 0.665702 0.332361
vt 0.000000 0.000000
vt 0.333393 0.000000
vt 0.000000 0.333393
vt 0.764624 0.339200
vt 0.734969 0.378919
vt 0.734969 0.339200
vt 0.015832 0.650954
vt 0.333393 0.333393
vt 0.317561 0.349225
vt 0.227503 0.349225
vt 0.205032 0.484140
vt 0.182526 0.486786
vt 0.223127 0.451613
vt 0.342993 0.339347
vt 0.644723 0.339200
vt 0.342993 0.460960
vt 0.794279 0.640930
vt 0.794279 0.519235
vt 0.823931 0.640918
vt 0.764624 0.640930
vt 0.794279 0.460649
vt 0.794279 0.339200
vt 0.823929 0.460673
vt 0.309393 0.906107
vt 0.309393 0.947149
vt 0.269042 0.906107
vt 0.182541 0.527828
vt 0.182555 0.568870
vt 0.137553 0.571516
vt 0.272555 0.519890
vt 0.272559 0.563578
vt 0.227557 0.566224
vt 0.202753 0.884782
vt 0.159065 0.884782
vt 0.202753 0.807497
vt 0.036991 0.797958
vt 0.036991 0.839000
vt 0.011999 0.797958
vt 0.630993 0.510286
vt 0.672035 0.510286
vt 0.630993 0.527267
vt 0.139548 0.860358
vt 0.139548 0.901400
vt 0.086591 0.860358
vt 0.217153 0.783797
vt 0.258195 0.783797
vt 0.217153 0.874044
vt 0.227548 0.523859
vt 0.573090 0.565205
vt 0.616547 0.569696
vt 0.616547 0.657724
vt 0.317561 0.515921
vt 0.272550 0.476202
vt 0.965393 0.943580
vt 0.921933 0.948042
vt 0.965393 0.855586
vt 0.410681 0.655134
vt 0.366993 0.655134
vt 0.410681 0.652000
vt 0.317561 0.560932
vt 0.317561 0.605943
vt 0.272564 0.607266
vt 0.320333 0.830978
vt 0.276645 0.830978
vt 0.320333 0.742197
vt 0.148922 0.926978
vt 0.193933 0.926978
vt 0.193933 0.971970
vt 0.875200 0.481186
vt 0.920216 0.481188
vt 0.875200 0.569960
vt 0.944216 0.364423
vt 0.989148 0.364386
vt 0.944216 0.453192
vt 0.162753 0.748597
vt 0.162753 0.703586
vt 0.251533 0.748597
vt 0.876189 0.763590
vt 0.876189 0.807278
vt 0.831197 0.807273
vt 0.946093 0.570520
vt 0.991109 0.570521
vt 0.946093 0.647799
vt 0.126748 0.793992
vt 0.126748 0.836358
vt 0.049463 0.793992
vt 0.728119 0.809027
vt 0.773051 0.808990
vt 0.728119 0.886302
vt 0.894980 0.917093
vt 0.894980 0.959458
vt 0.849988 0.959447
vt 0.886082 0.597913
vt 0.931099 0.597915
vt 0.886082 0.650867
vt 0.794279 0.519223
vt 0.794279 0.476858
vt 0.847236 0.519223
vt 0.813183 0.788228
vt 0.768251 0.788265
vt 0.813183 0.735278
vt 0.868929 0.599887
vt 0.868929 0.640930
vt 0.823936 0.640914
vt 0.823931 0.564241
vt 0.823931 0.519225
vt 0.864279 0.564239
vt 0.731451 0.956397
vt 0.731451 0.911465
vt 0.771797 0.956430
vt 0.694618 0.339200
vt 0.823929 0.339200
vt 0.864954 0.340392
vt 0.864954 0.385408
vt 0.098489 0.421750
vt 0.098489 0.376745
vt 0.123478 0.421759
vt 0.734969 0.418638
vt 0.709977 0.378919
vt 0.044089 0.430198
vt 0.044089 0.385133
vt 0.069079 0.430206
vt 0.677551 0.772468
vt 0.719899 0.773704
vt 0.719899 0.818720
vt 0.881496 0.462461
vt 0.881496 0.417456
vt 0.898475 0.462467
vt 0.045675 0.679591
vt 0.045675 0.724656
vt 0.028695 0.679586
vt 0.927275 0.419267
vt 0.927275 0.461633
vt 0.910294 0.419267
vt 0.090753 0.917244
vt 0.134422 0.918523
vt 0.134422 0.963540
vt 0.318245 0.846198
vt 0.318245 0.891204
vt 0.315112 0.846197
vt 0.103042 0.690787
vt 0.103042 0.735852
vt 0.099909 0.690786
vt 0.135109 0.754217
vt 0.135109 0.711852
vt 0.138243 0.754217
vt 0.939992 0.671695
vt 0.984925 0.674336
vt 0.984925 0.719416
vt 0.674786 0.886277
vt 0.719899 0.886095
vt 0.674786 0.973913
vt 0.527929 0.664124
vt 0.483153 0.659527
vt 0.483153 0.571533
vt 0.018475 0.890786
vt 0.063553 0.891031
vt 0.063553 0.978697
vt 0.854782 0.840878
vt 0.898302 0.844711
vt 0.898302 0.889892
vt 0.711899 0.666894
vt 0.757051 0.666895
vt 0.757051 0.754590
vt 0.947548 0.560852
vt 0.947548 0.473186
vt 0.992709 0.560920
vt 0.789051 0.885650
vt 0.831192 0.881294
vt 0.789051 0.973678
vt 0.823929 0.411901
vt 0.864814 0.415492
vt 0.864814 0.460673
vt 0.512536 0.472745
vt 0.557689 0.472770
vt 0.512536 0.562980
vt 0.051129 0.531324
vt 0.096290 0.441038
vt 0.096290 0.531278
vt 0.734969 0.458358
vt 0.734969 0.498077
vt 0.644723 0.458358
vt 0.227523 0.425220
vt 0.209912 0.439193
vt 0.209905 0.425220
vt 0.250044 0.478848
vt 0.231933 0.450578
vt 0.160020 0.489432
vt 0.218724 0.452131
vt 0.295056 0.473555
vt 0.236336 0.450060
vt 0.317561 0.410067
vt 0.317561 0.470909
vt 0.245141 0.449025
vt 0.137514 0.492078
vt 0.137480 0.420651
vt 0.137445 0.349225
vt 0.227538 0.481494
vt 0.227530 0.451096
vt 0.209919 0.453166
vt 0.240738 0.449543
vt 0.245141 0.437122
vt 0.835834 0.599887
vt 0.823931 0.599887
vt 0.835834 0.566913
vt 0.653182 0.625486
vt 0.653182 0.639459
vt 0.644286 0.625486
vt 0.487321 0.533797
vt 0.469712 0.533790
vt 0.487321 0.515367
vt 0.477248 0.487823
vt 0.477248 0.501797
vt 0.472515 0.487823
vt 0.453315 0.490582
vt 0.453315 0.508191
vt 0.439321 0.490588
vt 0.390435 0.579788
vt 0.390435 0.567886
vt 0.413886 0.579788
vt 0.894995 0.729266
vt 0.823312 0.748606
vt 0.823312 0.677360
vt 0.653395 0.597070
vt 0.692347 0.534206
vt 0.701821 0.649328
vt 0.419795 0.640725
vt 0.342993 0.641486
vt 0.342993 0.551806
vt 0.420112 0.550640
vt 0.420112 0.460960
vt 0.458911 0.667324
vt 0.425021 0.595484
vt 0.467153 0.551806
vt 0.126936 0.605443
vt 0.051795 0.625406
vt 0.051795 0.564718
vt 0.207621 0.898578
vt 0.240593 0.898442
vt 0.240593 0.970106
vt 0.060800 0.695485
vt 0.069477 0.691562
vt 0.069477 0.772477
vt 0.892189 0.744682
vt 0.896966 0.743142
vt 0.896966 0.823278
vt 0.943366 0.739523
vt 0.947677 0.738478
vt 0.947677 0.816676
vt 0.597079 0.478643
vt 0.602093 0.477717
vt 0.602093 0.555006
vt 0.914566 0.741838
vt 0.918695 0.741312
vt 0.918695 0.813678
vt 0.792634 0.653667
vt 0.792634 0.658400
vt 0.718993 0.654112
vt 0.137592 0.650954
vt 0.272569 0.650954
vt 0.182584 0.650954
vt 0.227577 0.650954
vt 0.666786 1.000137
vt 0.665702 0.332386
vt 0.998916 0.332494
vt 0.734969 0.640930
vt 0.734969 0.569503
vt 0.015832 0.349225
vt 0.644723 0.460960
vt 0.823931 0.519223
vt 0.823929 0.339224
vt 0.269042 0.947149
vt 0.137534 0.531797
vt 0.159065 0.807497
vt 0.011999 0.839000
vt 0.672035 0.527267
vt 0.086591 0.901400
vt 0.258195 0.874044
vt 0.573090 0.653233
vt 0.921933 0.860048
vt 0.366993 0.652000
vt 0.276645 0.742197
vt 0.150245 0.971975
vt 0.920216 0.569962
vt 0.989148 0.453155
vt 0.251533 0.703586
vt 0.831192 0.764908
vt 0.991109 0.647801
vt 0.049463 0.836358
vt 0.773051 0.886265
vt 0.849982 0.918405
vt 0.931099 0.650868
vt 0.847236 0.476858
vt 0.768251 0.735315
vt 0.823931 0.601195
vt 0.864279 0.519223
vt 0.771797 0.911499
vt 0.694618 0.378919
vt 0.825252 0.384260
vt 0.123478 0.376753
vt 0.709977 0.418638
vt 0.069079 0.385141
vt 0.678874 0.817529
vt 0.898475 0.417462
vt 0.028695 0.724651
vt 0.910294 0.461633
vt 0.092075 0.962304
vt 0.315112 0.891203
vt 0.099909 0.735851
vt 0.138243 0.711852
vt 0.941312 0.716857
vt 0.719899 0.973731
vt 0.527929 0.576131
vt 0.018475 0.978452
vt 0.856100 0.886180
vt 0.711899 0.754589
vt 0.970129 0.473220
vt 0.992709 0.473254
vt 0.831192 0.969323
vt 0.825247 0.457203
vt 0.557689 0.563006
vt 0.051129 0.441084
vt 0.073709 0.441061
vt 0.644723 0.498077
vt 0.245141 0.425220
vt 0.214321 0.452648
vt 0.823931 0.566913
vt 0.644286 0.639459
vt 0.469712 0.515360
vt 0.472515 0.501797
vt 0.439321 0.508197
vt 0.413886 0.567886
vt 0.894995 0.715329
vt 0.701821 0.544429
vt 0.419795 0.623181
vt 0.342993 0.534261
vt 0.467153 0.658779
vt 0.126936 0.593571
vn 0.000000 1.000000 0.000000
vn -1.000000 0.000000 0.000000
vn 0.000000 0.000000 -1.000000
vn 1.000000 0.000000 0.000000
vn -0.000000 -0.000000 1.000000
vn -0.000488 0.000000 1.000000
vn 0.000354 0.000000 -1.000000
vn 0.000112 0.000000 -1.000000
vn -0.000354 0.000000 1.000000
vn 0.000111 -0.005914 -0.999982
vn -0.000112 -0.000011 1.000000
vn 0.000111 0.000000 -1.000000
vn -0.000110 0.000000 1.000000
vn 0.999568 0.000000 0.029390
vn -0.000229 0.000000 1.000000
vn 0.000229 0.000000 -1.000000
vn -0.999568 0.000000 -0.029390
vn 0.998276 0.000000 0.058697
vn 0.990964 0.101747 0.087391
vn -0.993073 -0.101964 -0.058391
vn -0.990844 -0.102919 -0.087381
vn 0.987899 0.102785 0.116149
vn -0.000229 0.005902 0.999983
vn -0.996134 0.000000 -0.087847
vn 0.993159 0.000000 0.116767
vn -0.000489 0.000000 1.000000
vn 0.000032 -0.997871 -0.065217
vn 0.000060 -0.992540 -0.121916
vn -0.181112 -0.983463 0.000000
vn -0.235691 -0.971828 0.000000
vn 0.000000 -0.951365 0.308065
vn 0.000000 -0.910100 0.414390
vn 0.957248 0.000000 -0.289268
vn -0.936763 0.000000 -0.349963
vn -0.689875 0.000000 -0.723929
vn 0.000264 0.000000 -1.000000
vn 0.690075 0.000000 -0.723738
vn 0.968763 0.000000 -0.247991
vn 0.880853 0.000000 0.473390
vn -1.000000 -0.000000 -0.000001
vn 0.000110 0.000000 -1.000000
vn 0.000112 -0.005914 -0.999983
vn -0.000111 -0.000011 1.000000
vn -0.000111 0.000000 1.000000
vn 0.987899 0.102786 0.116149
vn -0.181112 -0.983462 0.000000
vn 0.000000 -0.910099 0.414390
usemtl Material
s off
f 4/1/1 3/2/1 12/3/1
f 1/4/2 2/5/2 5/6/2
f 2/7/3 3/8/3 6/9/3
f 3/8/4 4/10/4 7/11/4
f 5/12/5 8/13/5 1/14/5
f 17/15/6 28/16/6 13/17/6
f 3/2/1 2/14/1 11/18/1
f 1/19/1 4/1/1 9/20/1
f 1/19/1 9/20/1 82/21/1
f 88/22/1 33/23/1 102/24/1
f 18/25/1 17/26/1 15/27/1
f 13/28/4 11/29/4 17/30/4
f 11/31/3 10/15/3 16/28/3
f 10/32/2 14/33/2 15/34/2
f 38/35/7 31/36/7 57/37/7
f 39/38/1 34/39/1 23/40/1
f 40/41/1 35/42/1 25/43/1
f 41/44/8 27/45/8 49/46/8
f 34/47/7 38/48/7 60/49/7
f 38/50/9 34/51/9 65/52/9
f 31/53/9 38/54/9 51/55/9
f 33/56/7 39/57/7 80/58/7
f 36/59/1 39/38/1 33/23/1
f 36/59/1 25/43/1 34/39/1
f 29/60/10 40/61/10 77/62/10
f 30/63/1 40/41/1 29/64/1
f 35/65/11 40/66/11 72/67/11
f 35/68/12 41/69/12 67/70/12
f 21/71/1 26/72/1 41/73/1
f 27/74/13 41/75/13 44/76/13
f 43/77/1 42/78/1 44/79/1
f 41/80/14 26/81/14 45/82/14
f 12/83/2 27/84/2 42/85/2
f 26/86/3 12/87/3 43/88/3
f 49/89/1 47/90/1 46/91/1
f 37/92/14 41/93/14 48/94/14
f 22/95/15 37/96/15 46/97/15
f 27/98/2 22/99/2 47/100/2
f 52/101/1 50/102/1 51/103/1
f 38/104/14 37/105/14 53/106/14
f 37/107/16 22/108/16 52/109/16
f 22/110/2 31/111/2 50/112/2
f 57/113/1 56/114/1 54/115/1
f 28/116/14 38/117/14 55/118/14
f 31/119/2 13/120/2 56/121/2
f 13/17/6 28/16/6 54/122/6
f 60/123/1 61/124/1 59/125/1
f 38/126/17 28/127/17 61/128/17
f 28/16/6 23/129/6 59/130/6
f 23/131/18 34/132/18 58/133/18
f 62/134/1 64/135/1 65/136/1
f 37/137/17 38/138/17 64/139/17
f 34/140/18 25/141/18 63/142/18
f 25/143/16 37/144/16 62/145/16
f 67/146/1 69/147/1 68/148/1
f 41/149/17 37/150/17 69/151/17
f 25/152/18 35/153/18 66/154/18
f 37/155/15 25/156/15 68/157/15
f 71/158/1 70/159/1 72/160/1
f 40/161/19 30/162/19 73/163/19
f 30/164/3 21/165/3 70/166/3
f 21/167/20 35/168/20 72/169/20
f 75/170/1 77/171/1 76/172/1
f 40/173/21 36/174/21 76/175/21
f 74/176/22 24/177/22 75/178/22
f 36/179/23 24/180/23 76/181/23
f 80/182/1 81/183/1 79/184/1
f 39/185/24 32/186/24 81/187/24
f 78/188/25 33/189/25 80/190/25
f 32/191/6 20/192/6 79/193/6
f 96/194/1 97/195/1 90/196/1
f 29/64/1 87/197/1 101/198/1
f 33/23/1 86/199/1 95/200/1
f 85/201/1 29/64/1 94/202/1
f 84/203/1 19/204/1 91/205/1
f 20/206/1 83/207/1 97/195/1
f 14/208/1 82/21/1 96/194/1
f 24/209/1 88/22/1 93/210/1
f 87/197/1 24/209/1 93/210/1
f 86/199/1 20/206/1 92/211/1
f 19/204/1 85/201/1 99/212/1
f 9/20/1 84/203/1 98/213/1
f 83/207/1 14/208/1 97/195/1
f 82/21/1 9/20/1 96/194/1
f 98/214/3 91/215/3 108/216/3
f 97/217/26 90/218/26 107/219/26
f 96/220/4 89/221/4 106/222/4
f 92/223/26 97/224/26 111/225/26
f 90/226/4 96/227/4 110/228/4
f 89/229/3 98/230/3 109/231/3
f 113/232/27 83/233/27 20/234/27
f 83/235/28 107/236/28 14/237/28
f 112/238/29 82/239/29 14/240/29
f 82/241/30 106/240/30 9/242/30
f 114/243/31 84/244/31 9/245/31
f 105/246/32 19/247/32 84/248/32
f 105/249/33 91/250/33 19/251/33
f 114/252/34 108/253/34 84/254/34
f 103/255/35 109/256/35 9/257/35
f 112/258/36 106/259/36 82/260/36
f 104/261/37 110/262/37 14/263/37
f 113/264/38 107/265/38 83/266/38
f 92/267/39 111/268/39 20/269/39
f 3/2/1 11/18/1 13/270/1
f 12/3/1 3/2/1 27/271/1
f 3/2/1 13/270/1 31/272/1
f 27/271/1 3/2/1 22/273/1
f 3/2/1 31/272/1 22/273/1
f 2/5/40 6/274/40 5/6/40
f 3/8/3 7/275/3 6/9/3
f 4/10/4 8/276/4 7/11/4
f 8/13/5 4/19/5 1/14/5
f 14/277/6 83/278/6 18/31/6
f 83/278/6 20/192/6 18/31/6
f 20/192/6 32/191/6 18/31/6
f 32/191/6 23/129/6 18/31/6
f 23/129/6 28/16/6 18/31/6
f 28/16/6 17/15/6 18/31/6
f 2/14/1 10/279/1 11/18/1
f 4/1/1 12/3/1 26/72/1
f 9/20/1 4/1/1 84/203/1
f 4/1/1 26/72/1 21/71/1
f 84/203/1 4/1/1 19/204/1
f 4/1/1 21/71/1 30/63/1
f 19/204/1 4/1/1 30/63/1
f 2/14/1 1/19/1 82/21/1
f 10/279/1 2/14/1 14/208/1
f 2/14/1 82/21/1 14/208/1
f 33/23/1 95/200/1 102/24/1
f 17/26/1 16/280/1 15/27/1
f 11/29/4 16/281/4 17/30/4
f 10/15/3 15/33/3 16/28/3
f 14/33/2 18/282/2 15/34/2
f 31/36/7 56/283/7 57/37/7
f 32/284/1 39/38/1 23/40/1
f 36/59/1 40/41/1 25/43/1
f 27/45/41 47/285/41 49/46/41
f 38/48/7 61/286/7 60/49/7
f 34/51/9 63/287/9 65/52/9
f 38/54/9 53/288/9 51/55/9
f 39/57/7 81/289/7 80/58/7
f 24/209/1 36/59/1 88/22/1
f 36/59/1 33/23/1 88/22/1
f 39/38/1 36/59/1 34/39/1
f 75/290/42 29/60/42 77/62/42
f 19/204/1 30/63/1 85/201/1
f 30/63/1 29/64/1 85/201/1
f 40/66/43 73/291/43 72/67/43
f 41/69/12 69/292/12 67/70/12
f 35/42/1 21/71/1 41/73/1
f 41/75/44 45/293/44 44/76/44
f 45/294/1 43/77/1 44/79/1
f 26/81/14 43/295/14 45/82/14
f 27/84/2 44/296/2 42/85/2
f 12/87/3 42/297/3 43/88/3
f 48/298/1 49/89/1 46/91/1
f 41/93/14 49/299/14 48/94/14
f 37/96/15 48/300/15 46/97/15
f 22/99/2 46/301/2 47/100/2
f 53/302/1 52/101/1 51/103/1
f 37/105/14 52/303/14 53/106/14
f 22/108/16 50/304/16 52/109/16
f 31/111/2 51/305/2 50/112/2
f 55/306/1 57/113/1 54/115/1
f 38/117/14 57/307/14 55/118/14
f 13/120/2 54/308/2 56/121/2
f 28/16/6 55/309/6 54/122/6
f 58/310/1 60/123/1 59/125/1
f 28/127/17 59/311/17 61/128/17
f 23/129/6 58/312/6 59/130/6
f 34/132/18 60/313/18 58/133/18
f 63/314/1 62/134/1 65/136/1
f 38/138/17 65/315/17 64/139/17
f 25/141/18 62/316/18 63/142/18
f 37/144/16 64/317/16 62/145/16
f 66/318/1 67/146/1 68/148/1
f 37/150/17 68/319/17 69/151/17
f 35/153/18 67/320/18 66/154/18
f 25/156/15 66/321/15 68/157/15
f 73/322/1 71/158/1 72/160/1
f 30/162/19 71/323/19 73/163/19
f 71/324/3 30/164/3 70/166/3
f 70/325/20 21/167/20 72/169/20
f 74/326/1 75/170/1 76/172/1
f 77/327/21 40/173/21 76/175/21
f 24/177/45 87/328/45 75/178/45
f 87/328/22 29/329/22 75/178/22
f 24/180/23 74/330/23 76/181/23
f 78/331/1 80/182/1 79/184/1
f 32/186/24 79/332/24 81/187/24
f 20/333/25 86/334/25 78/188/25
f 86/334/25 33/189/25 78/188/25
f 20/192/6 78/335/6 79/193/6
f 89/336/1 98/213/1 96/194/1
f 96/194/1 98/213/1 97/195/1
f 97/195/1 98/213/1 92/211/1
f 98/213/1 91/205/1 99/212/1
f 92/211/1 98/213/1 100/337/1
f 98/213/1 99/212/1 94/202/1
f 100/337/1 98/213/1 95/200/1
f 98/213/1 94/202/1 101/198/1
f 95/200/1 98/213/1 102/24/1
f 98/213/1 101/198/1 93/210/1
f 102/24/1 98/213/1 93/210/1
f 94/202/1 29/64/1 101/198/1
f 86/199/1 100/337/1 95/200/1
f 99/212/1 85/201/1 94/202/1
f 98/213/1 84/203/1 91/205/1
f 92/211/1 20/206/1 97/195/1
f 90/196/1 14/208/1 96/194/1
f 88/22/1 102/24/1 93/210/1
f 101/198/1 87/197/1 93/210/1
f 100/337/1 86/199/1 92/211/1
f 91/205/1 19/204/1 99/212/1
f 89/336/1 9/20/1 98/213/1
f 14/208/1 90/196/1 97/195/1
f 9/20/1 89/336/1 96/194/1
f 91/215/3 105/338/3 108/216/3
f 90/218/6 104/339/6 107/219/6
f 89/221/4 103/340/4 106/222/4
f 97/224/26 113/341/26 111/225/26
f 96/227/4 112/342/4 110/228/4
f 98/230/3 114/343/3 109/231/3
f 111/344/27 113/232/27 20/234/27
f 107/236/28 104/345/28 14/237/28
f 110/346/46 112/238/46 14/240/46
f 106/240/30 103/347/30 9/242/30
f 109/348/31 114/243/31 9/245/31
f 108/349/47 105/246/47 84/248/47
