# Blender v2.69 (sub 0) OBJ File: ''
# www.blender.org
o Cube
v 1.0 -1.0 -1.0
v 1.0 -1.0 1.0
v -1.0 -1.0 1.0
v -1.0 -1.0 -1.0
v 1.0 1.0 -1.0
v 1.0 1.0 1.0
v -1.0 1.0 1.0
v -1.0 1.0 -1.0
vt 0.666667 0.0
vt 1.0 0.0
vt 1.0 0.333333
vt 0.333333 0.666667
vt 0.333333 0.333333
vt 0.666667 0.666667
vt 0.0 0.333333
vt 0.333333 0.0
vt 0.666667 0.333333
vt 1.0 0.666667
vt 0.0 0.666667
vt 0.0 0.0
vt 0.666667 0.333334
vn 0.0 -1.0 0.0
vn 0.0 1.0 0.0
vn 1.0 -0.0 0.0
vn 0.0 -0.0 1.0
vn -1.0 -0.0 -0.0
vn 0.0 0.0 -1.0
vn 1.0 0.0 0.0
f 1/1/1 2/2/1 3/3/1
f 5/4/2 8/5/2 6/6/2
f 1/5/3 5/7/3 2/8/3
f 2/5/4 6/8/4 3/9/4
f 3/9/5 7/3/5 8/10/5
f 5/7/6 1/5/6 8/11/6
f 4/9/1 1/1/1 3/3/1
f 5/7/7 6/12/7 2/8/7
f 1/5/6 4/4/6 8/11/6
f 8/5/2 7/13/2 6/6/2
f 4/6/5 3/9/5 8/10/5
f 6/8/4 7/1/4 3/9/4
